{
	"asset":{
		"generator":"Khronos glTF Blender I/O v4.5.49",
		"version":"2.0"
	},
	"extensionsUsed":[
		"KHR_materials_specular"
	],
	"scene":0,
	"scenes":[
		{
			"name":"Scene",
			"nodes":[
				0
			]
		}
	],
	"nodes":[
		{
			"mesh":0,
			"name":"fin_monitor_control_room_01.smd"
		}
	],
	"materials":[
		{
			"doubleSided":true,
			"extensions":{
				"KHR_materials_specular":{
					"specularFactor":0.0625
				}
			},
			"name":"fin_monitor_silo_01_col",
			"normalTexture":{
				"index":0
			},
			"pbrMetallicRoughness":{
				"baseColorTexture":{
					"index":1
				},
				"metallicRoughnessTexture":{
					"index":2
				}
			}
		},
		{
			"doubleSided":true,
			"extensions":{
				"KHR_materials_specular":{
					"specularFactor":0.125
				}
			},
			"name":"mtl_fin_monitor_control_room_col",
			"normalTexture":{
				"index":3
			},
			"pbrMetallicRoughness":{
				"baseColorTexture":{
					"index":4
				},
				"metallicRoughnessTexture":{
					"index":5
				}
			}
		}
	],
	"meshes":[
		{
			"name":"TheMask\\SBMP\\Electronics\\Screens\\fin_monitor_control_room_01_S_",
			"primitives":[
				{
					"attributes":{
						"POSITION":0,
						"NORMAL":1,
						"TEXCOORD_0":2
					},
					"indices":3,
					"material":0
				},
				{
					"attributes":{
						"POSITION":4,
						"NORMAL":5,
						"TEXCOORD_0":6
					},
					"indices":7,
					"material":1
				}
			]
		}
	],
	"textures":[
		{
			"sampler":0,
			"source":0
		},
		{
			"sampler":0,
			"source":1
		},
		{
			"sampler":0,
			"source":2
		},
		{
			"sampler":0,
			"source":3
		},
		{
			"sampler":0,
			"source":4
		},
		{
			"sampler":0,
			"source":5
		}
	],
	"images":[
		{
			"mimeType":"image/png",
			"name":"generic_N",
			"uri":"generic_N.png"
		},
		{
			"mimeType":"image/png",
			"name":"fin_monitor_silo_01_col",
			"uri":"fin_monitor_silo_01_col.png"
		},
		{
			"mimeType":"image/png",
			"name":"Phong_exp_B_030_C_064",
			"uri":"Phong_exp_B_030_C_064.png"
		},
		{
			"mimeType":"image/png",
			"name":"mtl_fin_monitor_control_room_col_N",
			"uri":"mtl_fin_monitor_control_room_col_N.png"
		},
		{
			"mimeType":"image/png",
			"name":"mtl_fin_monitor_control_room_col",
			"uri":"mtl_fin_monitor_control_room_col.png"
		},
		{
			"mimeType":"image/png",
			"name":"mtl_fin_monitor_control_room_col_S",
			"uri":"mtl_fin_monitor_control_room_col_S.png"
		}
	],
	"accessors":[
		{
			"bufferView":0,
			"componentType":5126,
			"count":33,
			"max":[
				0.17469638586044312,
				0.8161640763282776,
				1.9242651462554932
			],
			"min":[
				0.04828238859772682,
				-0.8092645406723022,
				-1.9242651462554932
			],
			"type":"VEC3"
		},
		{
			"bufferView":1,
			"componentType":5126,
			"count":33,
			"type":"VEC3"
		},
		{
			"bufferView":2,
			"componentType":5126,
			"count":33,
			"type":"VEC2"
		},
		{
			"bufferView":3,
			"componentType":5123,
			"count":120,
			"type":"SCALAR"
		},
		{
			"bufferView":4,
			"componentType":5126,
			"count":1484,
			"max":[
				0.21982453763484955,
				0.8469817638397217,
				2.002912998199463
			],
			"min":[
				-0.3375537097454071,
				-0.8400826454162598,
				-2.002912998199463
			],
			"type":"VEC3"
		},
		{
			"bufferView":5,
			"componentType":5126,
			"count":1484,
			"type":"VEC3"
		},
		{
			"bufferView":6,
			"componentType":5126,
			"count":1484,
			"type":"VEC2"
		},
		{
			"bufferView":7,
			"componentType":5123,
			"count":4848,
			"type":"SCALAR"
		}
	],
	"bufferViews":[
		{
			"buffer":0,
			"byteLength":396,
			"byteOffset":0,
			"target":34962
		},
		{
			"buffer":0,
			"byteLength":396,
			"byteOffset":396,
			"target":34962
		},
		{
			"buffer":0,
			"byteLength":264,
			"byteOffset":792,
			"target":34962
		},
		{
			"buffer":0,
			"byteLength":240,
			"byteOffset":1056,
			"target":34963
		},
		{
			"buffer":0,
			"byteLength":17808,
			"byteOffset":1296,
			"target":34962
		},
		{
			"buffer":0,
			"byteLength":17808,
			"byteOffset":19104,
			"target":34962
		},
		{
			"buffer":0,
			"byteLength":11872,
			"byteOffset":36912,
			"target":34962
		},
		{
			"buffer":0,
			"byteLength":9696,
			"byteOffset":48784,
			"target":34963
		}
	],
	"samplers":[
		{
			"magFilter":9729,
			"minFilter":9987
		}
	],
	"buffers":[
		{
			"byteLength":58480,
			"uri":"Control%20Room%20Monitor.bin"
		}
	]
}
